<?xml version="1.0" encoding="UTF-8"?>
<!DOCTYPE svg PUBLIC "-//W3C//DTD SVG 1.1//EN" "http://www.w3.org/Graphics/SVG/1.1/DTD/svg11.dtd">
<svg xmlns="http://www.w3.org/2000/svg" xmlns:xlink="http://www.w3.org/1999/xlink" version="1.1" baseProfile="full" width="1024" height="600">
<defs><g id="dot-1-4-red"/></defs><rect width="1024" height="600" fill="white"/><polyline fill="none" style="stroke-dasharray: 0.75, 1.5; stroke: black; stroke-width: 0.75" points="123.35964912280701,30 123.35964912280701,520"/><polyline fill="none" style="stroke-dasharray: 0.75, 1.5; stroke: black; stroke-width: 0.75" points="250.406432748538,30 250.406432748538,520"/><polyline fill="none" style="stroke-dasharray: 0.75, 1.5; stroke: black; stroke-width: 0.75" points="377.453216374269,30 377.453216374269,520"/><polyline fill="none" style="stroke-dasharray: 0.75, 1.5; stroke: black; stroke-width: 0.75" points="504.5,30 504.5,520"/><polyline fill="none" style="stroke-dasharray: 0.75, 1.5; stroke: black; stroke-width: 0.75" points="631.546783625731,30 631.546783625731,520"/><polyline fill="none" style="stroke-dasharray: 0.75, 1.5; stroke: black; stroke-width: 0.75" points="758.593567251462,30 758.593567251462,520"/><polyline fill="none" style="stroke-dasharray: 0.75, 1.5; stroke: black; stroke-width: 0.75" points="885.640350877193,30 885.640350877193,520"/><polyline fill="none" style="stroke-dasharray: 0.75, 1.5; stroke: black; stroke-width: 0.75" points="70,489.9122807017544 939,489.9122807017544"/><polyline fill="none" style="stroke-dasharray: 0.75, 1.5; stroke: black; stroke-width: 0.75" points="70,428.50877192982455 939,428.50877192982455"/><polyline fill="none" style="stroke-dasharray: 0.75, 1.5; stroke: black; stroke-width: 0.75" points="70,367.10526315789474 939,367.10526315789474"/><polyline fill="none" style="stroke-dasharray: 0.75, 1.5; stroke: black; stroke-width: 0.75" points="70,305.70175438596493 939,305.70175438596493"/><polyline fill="none" style="stroke-dasharray: 0.75, 1.5; stroke: black; stroke-width: 0.75" points="70,244.29824561403507 939,244.29824561403507"/><polyline fill="none" style="stroke-dasharray: 0.75, 1.5; stroke: black; stroke-width: 0.75" points="70,182.89473684210526 939,182.89473684210526"/><polyline fill="none" style="stroke-dasharray: 0.75, 1.5; stroke: black; stroke-width: 0.75" points="70,121.49122807017545 939,121.49122807017545"/><polyline fill="none" style="stroke-dasharray: 0.75, 1.5; stroke: black; stroke-width: 0.75" points="70,60.087719298245645 939,60.087719298245645"/><polyline stroke="red" stroke-width="1" fill="none" points="123.3596,367.1053 250.4064,428.5088 377.4532,244.2982 504.5,489.9123 631.5468,182.8947 758.5936,244.2982 885.6404,60.0877 "/>
<use x="123.3596" y="367.1053" xlink:href="#dot-1-4-red"/>
<use x="250.4064" y="428.5088" xlink:href="#dot-1-4-red"/>
<use x="377.4532" y="244.2982" xlink:href="#dot-1-4-red"/>
<use x="504.5" y="489.9123" xlink:href="#dot-1-4-red"/>
<use x="631.5468" y="182.8947" xlink:href="#dot-1-4-red"/>
<use x="758.5936" y="244.2982" xlink:href="#dot-1-4-red"/>
<use x="885.6404" y="60.0877" xlink:href="#dot-1-4-red"/>
<g shape-rendering="crispEdges"> <rect x="0" y="0" width="70" height="600" style="fill:rgb(255,255,255);"/><rect x="70" y="0" width="954" height="30" style="fill:rgb(255,255,255);"/><rect x="70" y="520" width="954" height="80" style="fill:rgb(255,255,255);"/><rect x="939" y="30" width="85" height="490" style="fill:rgb(255,255,255);"/><rect fill="none" stroke="black" stroke-width="1" x="70" y="30" width="869" height="490"/></g><rect opacity="0.85" shape-rendering="crispEdges" stroke-width="1" stroke="black" fill="white" x="75" y="35" width="220" height="20"/><polyline stroke="red" stroke-width="1" fill="none" points="81.6,45 134.4,45 "/><use x="108" y="45" xlink:href="#dot-1-4-red"/><text font-size="12" font-family="helvetica" text-anchor="start" x="141" y="49.44">myname</text><g shape-rendering="crispEdges"><line x1="123.35964912280701" x2="123.35964912280701" y1="515" y2="520" stroke="black" stroke-width="1"/><text font-family="helvetica" font-size="12" text-anchor="middle" dy="12.600000000000001" x="123.35964912280701" y="520">1</text><line x1="123.35964912280701" x2="123.35964912280701" y1="30" y2="35" stroke="black" stroke-width="1"/><line x1="250.406432748538" x2="250.406432748538" y1="515" y2="520" stroke="black" stroke-width="1"/><text font-family="helvetica" font-size="12" text-anchor="middle" dy="12.600000000000001" x="250.406432748538" y="520">2</text><line x1="250.406432748538" x2="250.406432748538" y1="30" y2="35" stroke="black" stroke-width="1"/><line x1="377.453216374269" x2="377.453216374269" y1="515" y2="520" stroke="black" stroke-width="1"/><text font-family="helvetica" font-size="12" text-anchor="middle" dy="12.600000000000001" x="377.453216374269" y="520">3</text><line x1="377.453216374269" x2="377.453216374269" y1="30" y2="35" stroke="black" stroke-width="1"/><line x1="504.5" x2="504.5" y1="515" y2="520" stroke="black" stroke-width="1"/><text font-family="helvetica" font-size="12" text-anchor="middle" dy="12.600000000000001" x="504.5" y="520">4</text><line x1="504.5" x2="504.5" y1="30" y2="35" stroke="black" stroke-width="1"/><line x1="631.546783625731" x2="631.546783625731" y1="515" y2="520" stroke="black" stroke-width="1"/><text font-family="helvetica" font-size="12" text-anchor="middle" dy="12.600000000000001" x="631.546783625731" y="520">5</text><line x1="631.546783625731" x2="631.546783625731" y1="30" y2="35" stroke="black" stroke-width="1"/><line x1="758.593567251462" x2="758.593567251462" y1="515" y2="520" stroke="black" stroke-width="1"/><text font-family="helvetica" font-size="12" text-anchor="middle" dy="12.600000000000001" x="758.593567251462" y="520">6</text><line x1="758.593567251462" x2="758.593567251462" y1="30" y2="35" stroke="black" stroke-width="1"/><line x1="885.640350877193" x2="885.640350877193" y1="515" y2="520" stroke="black" stroke-width="1"/><text font-family="helvetica" font-size="12" text-anchor="middle" dy="12.600000000000001" x="885.640350877193" y="520">7</text><line x1="885.640350877193" x2="885.640350877193" y1="30" y2="35" stroke="black" stroke-width="1"/><line x1="70" x2="75" y1="489.9122807017544" y2="489.9122807017544" stroke="black" stroke-width="1"/><text font-family="helvetica" font-size="12" text-anchor="end" dy="3.6363636363636367" x="67" y="489.9122807017544">2</text><line x1="939" x2="934" y1="489.9122807017544" y2="489.9122807017544" stroke="black" stroke-width="1"/><line x1="70" x2="75" y1="428.50877192982455" y2="428.50877192982455" stroke="black" stroke-width="1"/><text font-family="helvetica" font-size="12" text-anchor="end" dy="3.6363636363636367" x="67" y="428.50877192982455">3</text><line x1="939" x2="934" y1="428.50877192982455" y2="428.50877192982455" stroke="black" stroke-width="1"/><line x1="70" x2="75" y1="367.10526315789474" y2="367.10526315789474" stroke="black" stroke-width="1"/><text font-family="helvetica" font-size="12" text-anchor="end" dy="3.6363636363636367" x="67" y="367.10526315789474">4</text><line x1="939" x2="934" y1="367.10526315789474" y2="367.10526315789474" stroke="black" stroke-width="1"/><line x1="70" x2="75" y1="305.70175438596493" y2="305.70175438596493" stroke="black" stroke-width="1"/><text font-family="helvetica" font-size="12" text-anchor="end" dy="3.6363636363636367" x="67" y="305.70175438596493">5</text><line x1="939" x2="934" y1="305.70175438596493" y2="305.70175438596493" stroke="black" stroke-width="1"/><line x1="70" x2="75" y1="244.29824561403507" y2="244.29824561403507" stroke="black" stroke-width="1"/><text font-family="helvetica" font-size="12" text-anchor="end" dy="3.6363636363636367" x="67" y="244.29824561403507">6</text><line x1="939" x2="934" y1="244.29824561403507" y2="244.29824561403507" stroke="black" stroke-width="1"/><line x1="70" x2="75" y1="182.89473684210526" y2="182.89473684210526" stroke="black" stroke-width="1"/><text font-family="helvetica" font-size="12" text-anchor="end" dy="3.6363636363636367" x="67" y="182.89473684210526">7</text><line x1="939" x2="934" y1="182.89473684210526" y2="182.89473684210526" stroke="black" stroke-width="1"/><line x1="70" x2="75" y1="121.49122807017545" y2="121.49122807017545" stroke="black" stroke-width="1"/><text font-family="helvetica" font-size="12" text-anchor="end" dy="3.6363636363636367" x="67" y="121.49122807017545">8</text><line x1="939" x2="934" y1="121.49122807017545" y2="121.49122807017545" stroke="black" stroke-width="1"/><line x1="70" x2="75" y1="60.087719298245645" y2="60.087719298245645" stroke="black" stroke-width="1"/><text font-family="helvetica" font-size="12" text-anchor="end" dy="3.6363636363636367" x="67" y="60.087719298245645">9</text><line x1="939" x2="934" y1="60.087719298245645" y2="60.087719298245645" stroke="black" stroke-width="1"/></g><text font-size="14" font-family="helvetica" text-anchor="middle" x="504.5" y="19">demo</text><text dy="49.6" font-size="14" font-family="helvetica" text-anchor="middle" x="504.5" y="520">Days</text><text dy="3.6363636363636367" transform="rotate(-90,30,275)" font-size="14" font-family="helvetica" text-anchor="middle" x="30" y="275">Count</text></svg>